<svg xmlns="http://www.w3.org/2000/svg" width="1280" height="780" viewBox="0 0 1280 780" role="img" aria-label="DeepSeek++ 工具续跑和速度显示截图">
  <defs>
    <filter id="shadow" x="-10%" y="-10%" width="120%" height="130%">
      <feDropShadow dx="0" dy="14" stdDeviation="18" flood-color="#24345f" flood-opacity="0.14"/>
    </filter>
  </defs>
  <rect width="1280" height="780" fill="#ffffff"/>
  <g font-family="-apple-system,BlinkMacSystemFont,'Segoe UI',sans-serif">
    <text x="46" y="62" font-size="26" font-weight="700" fill="#111827">新对话</text>
    <text x="46" y="94" font-size="17" font-weight="600" fill="#4f64f5">快速模式</text>
    <g transform="translate(276 132)">
      <path d="M15 8a9 9 0 0 1 13 0l7 7a9 9 0 0 1 0 13l-7 7a9 9 0 0 1-13 0l-7-7a9 9 0 0 1 0-13z" fill="none" stroke="#4f64f5" stroke-width="3"/>
      <text x="48" y="29" font-size="21" font-weight="600" fill="#6b7280">已思考（用时 5 秒）</text>
      <path d="M270 18l8 8-8 8" fill="none" stroke="#6b7280" stroke-width="3" stroke-linecap="round" stroke-linejoin="round"/>
    </g>
    <g transform="translate(276 184)">
      <path d="M10 28l18-18m-3-6 9 9m-2-11 9 9-27 27H5v-9z" fill="none" stroke="#4f64f5" stroke-width="3" stroke-linecap="round" stroke-linejoin="round"/>
      <text x="48" y="27" font-size="21" font-weight="600" fill="#6b7280">已执行工具（14次）</text>
      <path d="M260 16l8 8-8 8" fill="none" stroke="#6b7280" stroke-width="3" stroke-linecap="round" stroke-linejoin="round"/>
    </g>
    <rect x="287" y="236" width="4" height="372" rx="2" fill="#5a67f2"/>
    <g transform="translate(314 232)">
      <rect width="914" height="50" rx="9" fill="#f3f4f7" stroke="#d9dde7"/>
      <text x="16" y="32" font-size="17" font-weight="700" fill="#5a67f2">Step 1</text>
      <text x="88" y="32" font-size="17" font-weight="600" fill="#6b7280">完成（12 个工具）</text>
      <path d="M890 18l10 7-10 7z" fill="#6b7280"/>
    </g>
    <g transform="translate(314 294)">
      <rect width="914" height="50" rx="9" fill="#f3f4f7" stroke="#d9dde7"/>
      <text x="16" y="32" font-size="17" font-weight="700" fill="#5a67f2">Step 2</text>
      <text x="88" y="32" font-size="17" font-weight="600" fill="#6b7280">完成</text>
      <path d="M890 18l10 7-10 7z" fill="#6b7280"/>
    </g>
    <g transform="translate(314 356)">
      <rect width="914" height="214" rx="9" fill="#ffffff" stroke="#d9dde7"/>
      <rect width="914" height="50" rx="9" fill="#f3f4f7"/>
      <text x="16" y="32" font-size="17" font-weight="700" fill="#5a67f2">Step 3</text>
      <text x="88" y="32" font-size="17" font-weight="600" fill="#6b7280">完成</text>
      <path d="M894 31l-5-8h10z" fill="#6b7280"/>
      <text x="18" y="84" font-size="15" fill="#98179b">- 第 2 页（内容页）</text>
      <text x="18" y="116" font-size="15" fill="#98179b">- 背景：白色；标题、正文、演讲者备注已写入</text>
      <text x="18" y="148" font-size="15" fill="#98179b">- 操作记录：已调用 OfficeCLI，本地文件验证通过</text>
      <text x="18" y="180" font-size="15" fill="#98179b">- 路径均使用引号包裹，避免 shell glob 展开错误</text>
    </g>
    <g transform="translate(260 612)" filter="url(#shadow)">
      <rect width="968" height="102" rx="36" fill="#ffffff" stroke="#e5e7eb"/>
      <text x="32" y="48" font-size="23" fill="#a8afb9">给 DeepSeek 发送消息</text>
      <rect x="792" y="22" width="92" height="38" rx="14" fill="#ffffff" stroke="#d9e2ff"/>
      <text x="838" y="47" text-anchor="middle" font-size="15" font-weight="600" fill="#7b8494">78.9 tok/s</text>
      <circle cx="916" cy="50" r="18" fill="#eef2ff"/>
      <path d="M916 41v18m-8-8 8-10 8 10" fill="none" stroke="#5a67f2" stroke-width="3" stroke-linecap="round" stroke-linejoin="round"/>
    </g>
  </g>
</svg>
